<svg width="89" height="35" viewBox="0 0 89 35" fill="none" xmlns="http://www.w3.org/2000/svg">
<path d="M11.8113 5.49219H9.01154C8.9604 5.12997 8.856 4.80824 8.69833 4.52699C8.54066 4.24148 8.33825 3.99858 8.09109 3.7983C7.84393 3.59801 7.55842 3.4446 7.23455 3.33807C6.91495 3.23153 6.56765 3.17827 6.19265 3.17827C5.51509 3.17827 4.92489 3.34659 4.42205 3.68324C3.91921 4.01562 3.5293 4.50142 3.25231 5.14062C2.97532 5.77557 2.83683 6.54687 2.83683 7.45455C2.83683 8.38778 2.97532 9.17187 3.25231 9.80682C3.53356 10.4418 3.9256 10.9212 4.42844 11.245C4.93129 11.5689 5.51296 11.7308 6.17347 11.7308C6.54421 11.7308 6.88725 11.6818 7.20259 11.5838C7.5222 11.4858 7.80558 11.343 8.05273 11.1555C8.29989 10.9638 8.50444 10.7315 8.66637 10.4588C8.83256 10.1861 8.94762 9.875 9.01154 9.52557L11.8113 9.53835C11.7388 10.1392 11.5577 10.7188 11.2679 11.277C10.9824 11.831 10.5968 12.3274 10.111 12.7663C9.62944 13.201 9.05415 13.5462 8.38512 13.8018C7.72035 14.0533 6.96822 14.179 6.12873 14.179C4.96112 14.179 3.91708 13.9148 2.99663 13.3864C2.08043 12.858 1.356 12.093 0.823331 11.0916C0.294922 10.0902 0.0307173 8.87784 0.0307173 7.45455C0.0307173 6.02699 0.299183 4.8125 0.836115 3.81108C1.37305 2.80966 2.10174 2.04687 3.02219 1.52273C3.94265 0.994318 4.97816 0.730113 6.12873 0.730113C6.88725 0.730113 7.59038 0.836647 8.2381 1.04972C8.89009 1.26278 9.46751 1.57386 9.97035 1.98295C10.4732 2.38778 10.8823 2.88423 11.1976 3.4723C11.5172 4.06037 11.7218 4.73366 11.8113 5.49219ZM25.8258 7.45455C25.8258 8.8821 25.5552 10.0966 25.014 11.098C24.4771 12.0994 23.7441 12.8643 22.8152 13.3928C21.8904 13.9169 20.8507 14.179 19.6958 14.179C18.5325 14.179 17.4885 13.9148 16.5637 13.3864C15.639 12.858 14.9082 12.093 14.3713 11.0916C13.8343 10.0902 13.5659 8.87784 13.5659 7.45455C13.5659 6.02699 13.8343 4.8125 14.3713 3.81108C14.9082 2.80966 15.639 2.04687 16.5637 1.52273C17.4885 0.994318 18.5325 0.730113 19.6958 0.730113C20.8507 0.730113 21.8904 0.994318 22.8152 1.52273C23.7441 2.04687 24.4771 2.80966 25.014 3.81108C25.5552 4.8125 25.8258 6.02699 25.8258 7.45455ZM23.0197 7.45455C23.0197 6.52983 22.8812 5.75 22.6042 5.11506C22.3315 4.48011 21.9458 3.99858 21.4473 3.67045C20.9487 3.34233 20.3649 3.17827 19.6958 3.17827C19.0268 3.17827 18.443 3.34233 17.9444 3.67045C17.4458 3.99858 17.0581 4.48011 16.7811 5.11506C16.5083 5.75 16.372 6.52983 16.372 7.45455C16.372 8.37926 16.5083 9.15909 16.7811 9.79403C17.0581 10.429 17.4458 10.9105 17.9444 11.2386C18.443 11.5668 19.0268 11.7308 19.6958 11.7308C20.3649 11.7308 20.9487 11.5668 21.4473 11.2386C21.9458 10.9105 22.3315 10.429 22.6042 9.79403C22.8812 9.15909 23.0197 8.37926 23.0197 7.45455ZM27.8761 14V0.909091H33.0408C34.0295 0.909091 34.8732 1.08594 35.5721 1.43963C36.2752 1.78906 36.81 2.28551 37.1765 2.92898C37.5472 3.56818 37.7326 4.32031 37.7326 5.18537C37.7326 6.05469 37.5451 6.80256 37.1701 7.42898C36.7951 8.05114 36.2518 8.52841 35.5401 8.8608C34.8327 9.19318 33.9762 9.35938 32.9705 9.35938H29.5124V7.13494H32.5231C33.0515 7.13494 33.4904 7.0625 33.8398 6.91761C34.1893 6.77273 34.4492 6.5554 34.6197 6.26562C34.7944 5.97585 34.8817 5.61577 34.8817 5.18537C34.8817 4.75071 34.7944 4.38423 34.6197 4.08594C34.4492 3.78764 34.1871 3.56179 33.8335 3.40838C33.484 3.25071 33.043 3.17188 32.5103 3.17188H30.6438V14H27.8761ZM34.9457 8.04261L38.1992 14H35.1438L31.9606 8.04261H34.9457ZM39.6886 14V0.909091H44.8533C45.842 0.909091 46.6857 1.08594 47.3846 1.43963C48.0877 1.78906 48.6225 2.28551 48.989 2.92898C49.3597 3.56818 49.5451 4.32031 49.5451 5.18537C49.5451 6.05469 49.3576 6.80256 48.9826 7.42898C48.6076 8.05114 48.0643 8.52841 47.3526 8.8608C46.6452 9.19318 45.7887 9.35938 44.783 9.35938H41.3249V7.13494H44.3356C44.864 7.13494 45.3029 7.0625 45.6523 6.91761C46.0018 6.77273 46.2617 6.5554 46.4322 6.26562C46.6069 5.97585 46.6942 5.61577 46.6942 5.18537C46.6942 4.75071 46.6069 4.38423 46.4322 4.08594C46.2617 3.78764 45.9996 3.56179 45.646 3.40838C45.2965 3.25071 44.8555 3.17188 44.3228 3.17188H42.4563V14H39.6886ZM46.7582 8.04261L50.0117 14H46.9563L43.7731 8.04261H46.7582ZM51.5011 14V0.909091H60.3221V3.19105H54.2688V6.31037H59.8683V8.59233H54.2688V11.718H60.3477V14H51.5011ZM73.7901 4.67401C73.739 4.15838 73.5195 3.75781 73.1317 3.4723C72.744 3.18679 72.2177 3.04403 71.5529 3.04403C71.1012 3.04403 70.7198 3.10795 70.4087 3.2358C70.0977 3.35937 69.859 3.53196 69.6928 3.75355C69.5309 3.97514 69.4499 4.22656 69.4499 4.50781C69.4414 4.74219 69.4904 4.94673 69.5969 5.12145C69.7077 5.29616 69.859 5.44744 70.0508 5.57528C70.2425 5.69886 70.4641 5.80753 70.7156 5.90128C70.967 5.99077 71.2354 6.06747 71.521 6.13139L72.6971 6.41264C73.2681 6.54048 73.7923 6.71094 74.2695 6.92401C74.7468 7.13707 75.1602 7.39915 75.5096 7.71023C75.859 8.02131 76.1296 8.38778 76.3214 8.80966C76.5174 9.23153 76.6175 9.7152 76.6218 10.2607C76.6175 11.0618 76.413 11.7564 76.0082 12.3445C75.6076 12.9283 75.0281 13.3821 74.2695 13.706C73.5153 14.0256 72.6055 14.1854 71.5401 14.1854C70.4833 14.1854 69.5629 14.0234 68.7788 13.6996C67.9989 13.3757 67.3896 12.8963 66.9506 12.2614C66.516 11.6222 66.288 10.8317 66.2667 9.88991H68.945C68.9748 10.3288 69.1005 10.6953 69.3221 10.9893C69.5479 11.2791 69.8484 11.4986 70.2234 11.6477C70.6026 11.7926 71.0309 11.8651 71.5082 11.8651C71.9769 11.8651 72.3839 11.7969 72.729 11.6605C73.0785 11.5241 73.3491 11.3345 73.5408 11.0916C73.7326 10.8487 73.8285 10.5696 73.8285 10.2543C73.8285 9.96023 73.7411 9.71307 73.5664 9.51278C73.396 9.3125 73.1445 9.14205 72.8121 9.00142C72.484 8.8608 72.0813 8.73295 71.604 8.6179L70.1786 8.25994C69.0749 7.99148 68.2035 7.57173 67.5643 7.00071C66.9251 6.42969 66.6076 5.66051 66.6119 4.69318C66.6076 3.90057 66.8185 3.2081 67.2447 2.61577C67.6751 2.02344 68.2653 1.56108 69.0153 1.22869C69.7653 0.896306 70.6175 0.730113 71.5721 0.730113C72.5437 0.730113 73.3917 0.896306 74.1161 1.22869C74.8448 1.56108 75.4116 2.02344 75.8164 2.61577C76.2212 3.2081 76.43 3.89418 76.4428 4.67401H73.7901ZM78.4835 14V0.909091H83.6483C84.6412 0.909091 85.487 1.09872 86.1859 1.47798C86.8848 1.85298 87.4174 2.375 87.7839 3.04403C88.1547 3.70881 88.34 4.47585 88.34 5.34517C88.34 6.21449 88.1525 6.98153 87.7775 7.64631C87.4025 8.31108 86.8592 8.82883 86.1476 9.19957C85.4402 9.57031 84.5836 9.75568 83.5779 9.75568H80.286V7.53764H83.1305C83.6632 7.53764 84.1021 7.44602 84.4473 7.26278C84.7967 7.07528 85.0566 6.81747 85.2271 6.48935C85.4018 6.15696 85.4892 5.77557 85.4892 5.34517C85.4892 4.91051 85.4018 4.53125 85.2271 4.20739C85.0566 3.87926 84.7967 3.62571 84.4473 3.44673C84.0978 3.26349 83.6547 3.17188 83.1177 3.17188H81.2512V14H78.4835ZM43.0748 34V32.0057L47.7346 27.6911C48.1309 27.3075 48.4632 26.9624 48.7317 26.6555C49.0044 26.3487 49.2111 26.0483 49.3517 25.7543C49.4924 25.456 49.5627 25.1342 49.5627 24.7891C49.5627 24.4055 49.4753 24.0753 49.3006 23.7983C49.1259 23.517 48.8873 23.3018 48.5847 23.1527C48.2821 22.9993 47.9391 22.9226 47.5556 22.9226C47.155 22.9226 46.8056 23.0036 46.5073 23.1655C46.209 23.3274 45.9789 23.5597 45.8169 23.8622C45.655 24.1648 45.574 24.5249 45.574 24.9425H42.9469C42.9469 24.0859 43.1408 23.3423 43.5286 22.7116C43.9164 22.081 44.4597 21.593 45.1586 21.2479C45.8574 20.9027 46.6628 20.7301 47.5748 20.7301C48.5123 20.7301 49.3283 20.8963 50.0229 21.2287C50.7218 21.5568 51.2651 22.0128 51.6529 22.5966C52.0407 23.1804 52.2346 23.8494 52.2346 24.6037C52.2346 25.098 52.1365 25.5859 51.9405 26.0675C51.7488 26.549 51.4057 27.0838 50.9114 27.6719C50.4171 28.2557 49.7203 28.9567 48.8212 29.7749L46.91 31.6477V31.7372H52.4071V34H43.0748ZM59.5455 34.2876C58.446 34.2834 57.5 34.0128 56.7074 33.4759C55.919 32.9389 55.3118 32.1612 54.8857 31.1428C54.4638 30.1243 54.255 28.8991 54.2592 27.4673C54.2592 26.0398 54.4702 24.8232 54.892 23.8175C55.3182 22.8118 55.9254 22.0469 56.7138 21.5227C57.5064 20.9943 58.4503 20.7301 59.5455 20.7301C60.6406 20.7301 61.5824 20.9943 62.3707 21.5227C63.1634 22.0511 63.7727 22.8182 64.1989 23.8239C64.625 24.8253 64.8359 26.0398 64.8317 27.4673C64.8317 28.9034 64.6186 30.1307 64.1925 31.1491C63.7706 32.1676 63.1655 32.9453 62.3771 33.4822C61.5888 34.0192 60.6449 34.2876 59.5455 34.2876ZM59.5455 31.9929C60.2955 31.9929 60.8942 31.6158 61.3416 30.8615C61.7891 30.1072 62.0107 28.9759 62.0064 27.4673C62.0064 26.4744 61.9041 25.6477 61.6996 24.9872C61.4993 24.3267 61.2138 23.8303 60.843 23.4979C60.4766 23.1655 60.044 22.9993 59.5455 22.9993C58.7997 22.9993 58.2031 23.3722 57.7557 24.1179C57.3082 24.8636 57.0824 25.9801 57.0781 27.4673C57.0781 28.473 57.1783 29.3125 57.3786 29.9858C57.5831 30.6548 57.8707 31.1577 58.2415 31.4943C58.6122 31.8267 59.0469 31.9929 59.5455 31.9929ZM66.8052 34V32.0057L71.465 27.6911C71.8613 27.3075 72.1937 26.9624 72.4622 26.6555C72.7349 26.3487 72.9416 26.0483 73.0822 25.7543C73.2228 25.456 73.2931 25.1342 73.2931 24.7891C73.2931 24.4055 73.2058 24.0753 73.0311 23.7983C72.8564 23.517 72.6177 23.3018 72.3152 23.1527C72.0126 22.9993 71.6696 22.9226 71.286 22.9226C70.8855 22.9226 70.536 23.0036 70.2377 23.1655C69.9395 23.3274 69.7093 23.5597 69.5474 23.8622C69.3855 24.1648 69.3045 24.5249 69.3045 24.9425H66.6774C66.6774 24.0859 66.8713 23.3423 67.2591 22.7116C67.6468 22.081 68.1902 21.593 68.889 21.2479C69.5879 20.9027 70.3933 20.7301 71.3052 20.7301C72.2427 20.7301 73.0588 20.8963 73.7534 21.2287C74.4522 21.5568 74.9956 22.0128 75.3833 22.5966C75.7711 23.1804 75.965 23.8494 75.965 24.6037C75.965 25.098 75.867 25.5859 75.671 26.0675C75.4792 26.549 75.1362 27.0838 74.6419 27.6719C74.1475 28.2557 73.4508 28.9567 72.5517 29.7749L70.6404 31.6477V31.7372H76.1376V34H66.8052ZM77.6637 31.6989V29.5192L83.1289 20.9091H85.0082V23.9261H83.896L80.4506 29.3786V29.4808H88.217V31.6989H77.6637ZM83.9471 34V31.0341L83.9982 30.0689V20.9091H86.5934V34H83.9471Z" fill="white"/>
</svg>
