<svg width="29" height="10" viewBox="0 0 29 10" fill="none" xmlns="http://www.w3.org/2000/svg">
<path d="M3.10087 9.99594C2.26327 9.96272 1.57799 9.73396 1.04216 9.30907C0.939899 9.2279 0.696222 8.98453 0.614471 8.88189C0.397184 8.60917 0.249457 8.34376 0.150925 8.04929C-0.152273 7.14282 0.003772 5.95332 0.59726 4.64788C1.10541 3.53025 1.88951 2.42179 3.25748 0.886571C3.459 0.660667 4.05908 0 4.06295 0C4.06439 0 4.03169 0.0565467 3.99052 0.125406C3.63483 0.720078 3.33049 1.42054 3.16469 2.02696C2.89835 3 2.93048 3.83503 3.25878 4.48253C3.48524 4.92861 3.87349 5.31499 4.31007 5.52858C5.07438 5.90236 6.19337 5.93328 7.55991 5.61905C7.654 5.59729 12.3161 4.36199 17.9203 2.87387C23.5244 1.38561 28.1104 0.168925 28.1111 0.169927C28.1127 0.171217 15.0911 5.73286 8.33139 8.61819C7.26087 9.075 6.9746 9.19039 6.47133 9.36676C5.18481 9.8177 4.0324 10.0329 3.10087 9.99594Z" fill="white"/>
</svg>
