<svg width="113" height="40" viewBox="0 0 113 40" fill="none" xmlns="http://www.w3.org/2000/svg">
<path d="M12.4035 39.9837C9.05308 39.8509 6.31197 38.9358 4.16864 37.2363C3.7596 36.9116 2.78489 35.9381 2.45788 35.5275C1.58873 34.4367 0.997828 33.375 0.603699 32.1971C-0.609092 28.5713 0.015088 23.8133 2.38904 18.5915C4.42164 14.121 7.55803 9.68714 13.0299 3.54628C13.836 2.64267 16.2363 0 16.2518 0C16.2575 0 16.1267 0.226187 15.9621 0.501623C14.5393 2.88031 13.3219 5.68218 12.6588 8.10784C11.5934 12 11.7219 15.3401 13.0351 17.9301C13.941 19.7144 15.494 21.26 17.2403 22.1143C20.2975 23.6094 24.7735 23.7331 30.2396 22.4762C30.616 22.3892 49.2645 17.448 71.6811 11.4955C94.0977 5.54245 112.442 0.6757 112.444 0.679707C112.451 0.68487 60.3644 22.9314 33.3256 34.4728C29.0435 36.3 27.8984 36.7616 25.8853 37.467C20.7393 39.2708 16.1296 40.1315 12.4035 39.9837Z" fill="#FF5A0E"/>
</svg>
