<svg width="65" height="35" viewBox="0 0 65 35" fill="none" xmlns="http://www.w3.org/2000/svg">
<path d="M12.0874 0.909091V14H9.69673L4.00142 5.76065H3.90554V14H1.13778V0.909091H3.56676L9.21733 9.14205H9.33239V0.909091H12.0874ZM17.1419 0.909091V14H14.3741V0.909091H17.1419ZM19.419 14V0.909091H22.1868V6.68111H22.3594L27.0703 0.909091H30.3878L25.5298 6.7706L30.4453 14H27.1342L23.5483 8.6179L22.1868 10.2798V14H19.419ZM31.8292 14V0.909091H40.6502V3.19105H34.5969V6.31037H40.1964V8.59233H34.5969V11.718H40.6758V14H31.8292ZM8.23935 24.674C8.18821 24.1584 7.96875 23.7578 7.58097 23.4723C7.19318 23.1868 6.6669 23.044 6.00213 23.044C5.55043 23.044 5.16903 23.108 4.85795 23.2358C4.54688 23.3594 4.30824 23.532 4.14205 23.7536C3.98011 23.9751 3.89915 24.2266 3.89915 24.5078C3.89063 24.7422 3.93963 24.9467 4.04616 25.1214C4.15696 25.2962 4.30824 25.4474 4.5 25.5753C4.69176 25.6989 4.91335 25.8075 5.16477 25.9013C5.41619 25.9908 5.68466 26.0675 5.97017 26.1314L7.14631 26.4126C7.71733 26.5405 8.24148 26.7109 8.71875 26.924C9.19602 27.1371 9.60938 27.3991 9.95881 27.7102C10.3082 28.0213 10.5788 28.3878 10.7706 28.8097C10.9666 29.2315 11.0668 29.7152 11.071 30.2607C11.0668 31.0618 10.8622 31.7564 10.4574 32.3445C10.0568 32.9283 9.47727 33.3821 8.71875 33.706C7.96449 34.0256 7.05469 34.1854 5.98935 34.1854C4.93253 34.1854 4.01207 34.0234 3.22798 33.6996C2.44815 33.3757 1.83878 32.8963 1.39986 32.2614C0.965199 31.6222 0.737216 30.8317 0.715909 29.8899H3.39418C3.42401 30.3288 3.54972 30.6953 3.77131 30.9893C3.99716 31.2791 4.29759 31.4986 4.67259 31.6477C5.05185 31.7926 5.48011 31.8651 5.95739 31.8651C6.42614 31.8651 6.8331 31.7969 7.17827 31.6605C7.5277 31.5241 7.7983 31.3345 7.99006 31.0916C8.18182 30.8487 8.2777 30.5696 8.2777 30.2543C8.2777 29.9602 8.19034 29.7131 8.01562 29.5128C7.84517 29.3125 7.59375 29.142 7.26136 29.0014C6.93324 28.8608 6.53054 28.733 6.05327 28.6179L4.62784 28.2599C3.52415 27.9915 2.6527 27.5717 2.01349 27.0007C1.37429 26.4297 1.05682 25.6605 1.06108 24.6932C1.05682 23.9006 1.26776 23.2081 1.69389 22.6158C2.12429 22.0234 2.71449 21.5611 3.46449 21.2287C4.21449 20.8963 5.06676 20.7301 6.02131 20.7301C6.9929 20.7301 7.84091 20.8963 8.56534 21.2287C9.29403 21.5611 9.8608 22.0234 10.2656 22.6158C10.6705 23.2081 10.8793 23.8942 10.892 24.674H8.23935ZM12.9327 34V20.9091H18.0975C19.0904 20.9091 19.9363 21.0987 20.6351 21.478C21.334 21.853 21.8667 22.375 22.2331 23.044C22.6039 23.7088 22.7892 24.4759 22.7892 25.3452C22.7892 26.2145 22.6017 26.9815 22.2267 27.6463C21.8517 28.3111 21.3084 28.8288 20.5968 29.1996C19.8894 29.5703 19.0328 29.7557 18.0272 29.7557H14.7353V27.5376H17.5797C18.1124 27.5376 18.5513 27.446 18.8965 27.2628C19.2459 27.0753 19.5059 26.8175 19.6763 26.4893C19.851 26.157 19.9384 25.7756 19.9384 25.3452C19.9384 24.9105 19.851 24.5312 19.6763 24.2074C19.5059 23.8793 19.2459 23.6257 18.8965 23.4467C18.5471 23.2635 18.1039 23.1719 17.5669 23.1719H15.7005V34H12.9327ZM28.753 34V20.9091H33.9178C34.9064 20.9091 35.7502 21.0859 36.449 21.4396C37.1522 21.7891 37.687 22.2855 38.0534 22.929C38.4242 23.5682 38.6096 24.3203 38.6096 25.1854C38.6096 26.0547 38.4221 26.8026 38.0471 27.429C37.6721 28.0511 37.1287 28.5284 36.4171 28.8608C35.7097 29.1932 34.8532 29.3594 33.8475 29.3594H30.3894V27.1349H33.4C33.9284 27.1349 34.3674 27.0625 34.7168 26.9176C35.0662 26.7727 35.3262 26.5554 35.4966 26.2656C35.6713 25.9759 35.7587 25.6158 35.7587 25.1854C35.7587 24.7507 35.6713 24.3842 35.4966 24.0859C35.3262 23.7876 35.0641 23.5618 34.7104 23.4084C34.361 23.2507 33.9199 23.1719 33.3873 23.1719H31.5208V34H28.753ZM35.8226 28.0426L39.0762 34H36.0208L32.8375 28.0426H35.8226ZM48.6515 20.9091H51.4192V29.4105C51.4192 30.3651 51.1912 31.2003 50.7353 31.9162C50.2836 32.6321 49.6507 33.1903 48.8368 33.5909C48.0229 33.9872 47.0748 34.1854 45.9924 34.1854C44.9057 34.1854 43.9554 33.9872 43.1415 33.5909C42.3276 33.1903 41.6948 32.6321 41.2431 31.9162C40.7914 31.2003 40.5655 30.3651 40.5655 29.4105V20.9091H43.3333V29.174C43.3333 29.6726 43.4419 30.1158 43.6593 30.5036C43.8809 30.8913 44.1919 31.196 44.5925 31.4176C44.9931 31.6392 45.4597 31.75 45.9924 31.75C46.5293 31.75 46.9959 31.6392 47.3922 31.4176C47.7928 31.196 48.1017 30.8913 48.3191 30.5036C48.5407 30.1158 48.6515 29.6726 48.6515 29.174V20.9091ZM64.646 20.9091V34H62.2553L56.56 25.7607H56.4641V34H53.6964V20.9091H56.1254L61.7759 29.142H61.891V20.9091H64.646Z" fill="white"/>
</svg>
